# xmcd
#
# Track frame offsets: 
#        150
#        19197
#        35115
#        50863
#        70888
#        84422
#        102794
#        118148
#        123893
#        140618
#        142802
#        162315
#        178645
#        186930
#        188544
#
# Disc length: 2725 seconds
#
# Revision: 2
# Processed by: cddbd v1.5.2PL0 Copyright (c) Steve Scherf et al.
# Submitted via: ExactAudioCopy v1.0b3
#
DISCID=d30aa30f
DTITLE=Friend 'n Fellow - Fairy Godmother
DYEAR=1995
DGENRE=Jazz
TTITLE0=Unhurt world
TTITLE1=In my dreams
TTITLE2=Reverence for a friend
TTITLE3=I'd better go
TTITLE4=Little brother
TTITLE5=Now you are here
TTITLE6=Fairy godmother
TTITLE7=f.g.m. (long distance call)
TTITLE8=Favourite Song
TTITLE9=Stars 'n Guitars
TTITLE10=Wake up
TTITLE11=The wind cries Mary
TTITLE12=Day by Day
TTITLE13=Friend 'n Fellow (encore)
TTITLE14=It makes no Difference
EXTD=
EXTT0=
EXTT1=
EXTT2=
EXTT3=
EXTT4=
EXTT5=
EXTT6=
EXTT7=
EXTT8=
EXTT9=
EXTT10=
EXTT11=
EXTT12=
EXTT13=
EXTT14=
PLAYORDER=
